<svg width="199" height="143" viewBox="0 0 199 143" fill="none" xmlns="http://www.w3.org/2000/svg">
    <path d="M198.5 0H0.5V143H198.5V0Z" fill="#F4F8F9" />
    <path d="M156.883 37.7378H42.1167V109.559H156.883V37.7378Z" fill="white" />
    <path d="M42.1167 37.7378L99.4999 71.4999L156.883 37.7378H42.1167Z" fill="#0CBC8B" />
    <path d="M198.5 0H0.5V11.7796H198.5V0Z" fill="#BDD4DD" />
    <path
        d="M191.868 8.84498C193.505 8.84498 194.832 7.52177 194.832 5.88951C194.832 4.25725 193.505 2.93404 191.868 2.93404C190.232 2.93404 188.905 4.25725 188.905 5.88951C188.905 7.52177 190.232 8.84498 191.868 8.84498Z"
        fill="white" />
    <path
        d="M142.387 121.028C154.243 121.028 163.855 111.442 163.855 99.6179C163.855 87.7937 154.243 78.2083 142.387 78.2083C130.531 78.2083 120.919 87.7937 120.919 99.6179C120.919 111.442 130.531 121.028 142.387 121.028Z"
        fill="#0CBC8B" />
    <path
        d="M138.706 111.148C138.299 111.148 137.908 110.993 137.612 110.715L129.457 103.041C129.15 102.752 128.97 102.352 128.958 101.931C128.945 101.509 129.102 101.1 129.392 100.794C129.682 100.487 130.082 100.308 130.505 100.296C130.928 100.283 131.338 100.439 131.645 100.729L138.618 107.29L153.042 91.4377C153.326 91.1255 153.723 90.9386 154.145 90.9181C154.568 90.8977 154.981 91.0454 155.294 91.3287C155.607 91.612 155.794 92.0077 155.815 92.4288C155.835 92.85 155.687 93.262 155.403 93.5742L139.886 110.627C139.744 110.783 139.571 110.91 139.379 110.999C139.187 111.089 138.979 111.139 138.768 111.147C138.747 111.148 138.726 111.148 138.706 111.148Z"
        fill="white" />
</svg>